<?xml version="1.0" encoding="UTF-8"?>
<svg width="204px" height="204px" viewBox="0 0 204 204" version="1.1" xmlns="http://www.w3.org/2000/svg" xmlns:xlink="http://www.w3.org/1999/xlink">
    <title>SMD favicon on dark</title>
    <defs>
        <circle id="path-1" cx="102" cy="102" r="102"></circle>
        <circle id="path-3" cx="102" cy="102" r="102"></circle>
    </defs>
    <g id="SMD-favicon-on-dark" stroke="none" stroke-width="1" fill="none" fill-rule="evenodd">
        <g id="maggi-+-silvia-Mask">
            <mask id="mask-2" fill="white">
                <use xlink:href="#path-1"></use>
            </mask>
            <use id="Mask" fill="#F3EAE5" xlink:href="#path-1"></use>
            <mask id="mask-4" fill="white">
                <use xlink:href="#path-3"></use>
            </mask>
            <use id="Mask-Copy" fill="#734BD7" xlink:href="#path-3"></use>
            <g id="maggi" mask="url(#mask-4)" fill="#FFFFFF" fill-rule="nonzero" stroke="#FFFFFF" stroke-width="1.07092417">
                <g transform="translate(69.2, 96)" id="magi">
                    <path d="M94.5595378,78.4 C101.885551,78.4 109.642506,75.1692308 117.614932,70.2153846 C125.80283,65.0461538 134.206198,57.9384615 142.394095,49.1076923 C154.46047,36.1846154 162.648367,25.4153846 162.648367,25.4153846 C164.803077,22.8307692 163.725722,19.3846154 161.14007,17.6615385 C161.14007,17.6615385 158.123476,13.7846154 147.780869,25.8461538 C144.548805,29.9384615 140.023914,35.5384615 134.421669,41.7846154 C126.664713,49.9692308 118.907758,56.4307692 111.797216,60.9538462 C104.902145,65.2615385 98.4380154,67.4153846 94.5595378,67.4153846 C91.9738861,67.4153846 90.6810602,66.7692308 89.6037053,65.4769231 C88.5263504,64.1846154 87.4489955,61.3846154 87.4489955,56.6461538 C87.4489955,52.5538462 88.0954085,47.3846154 90.0346473,40.7076923 C92.1893571,32.3076923 94.1285959,24.1230769 94.1285959,16.5846154 C94.1285959,14.2153846 93.9131249,11.8461538 93.2667119,9.47692308 C92.620299,7.10769231 91.7584151,4.73846154 89.8191763,3.01538462 C88.0954085,1.07692308 85.2942858,0 82.924105,0 C76.8909176,0.215384615 72.7969691,3.87692308 68.2720785,7.96923077 C64.1781299,12.0615385 59.6532394,17.2307692 55.7747618,22.4 C55.5592908,20.4615385 55.1283489,18.5230769 54.266465,16.8 C52.9736391,13.5692308 49.7415744,10.1230769 45.2166839,9.90769231 L45.2166839,9.90769231 L44.570271,9.90769231 C38.5370836,10.1230769 34.658606,13.5692308 29.9182445,17.4461538 C26.2552379,20.6769231 22.3767603,24.5538462 18.9292246,28.6461538 L18.9292246,28.6461538 L23.8850571,11.4153846 C24.746941,8.4 23.2386442,5.38461538 20.2220505,4.52307692 C17.4209278,3.66153846 14.1888631,5.38461538 13.3269792,8.18461538 L13.3269792,8.18461538 L0.183249547,52.9846154 C-0.463163386,55.5692308 0.614191503,58.3692308 3.19984324,59.4461538 C5.57002399,60.7384615 8.3711467,59.8769231 10.0949145,57.7230769 C10.0949145,57.7230769 11.6032114,55.3538462 14.4043341,51.6923077 C18.4982827,46.3076923 24.962412,38.1230769 31.2110703,31.4461538 C34.227664,28.2153846 37.4597287,25.2 40.0453804,23.2615385 C41.1227353,22.4 42.4155612,21.7538462 43.2774451,21.3230769 C43.7083871,21.1076923 43.923858,20.8923077 44.139329,20.8923077 C44.570271,21.7538462 45.2166839,23.9076923 45.0012129,26.7076923 C45.2166839,32.3076923 43.2774451,40.0615385 41.5536773,43.0769231 C41.1227353,43.9384615 40.9072643,44.3692308 40.9072643,44.3692308 C39.1834965,46.9538462 40.0453804,50.1846154 42.4155612,51.9076923 C45.0012129,53.4153846 48.2332776,52.7692308 49.9570454,50.4 C50.1725164,50.1846154 50.1725164,50.1846154 50.1725164,50.1846154 C50.1725164,50.1846154 51.6808132,47.6 54.266465,43.7230769 C58.1449426,37.9076923 64.1781299,29.2923077 69.9958463,22.1846154 C73.01244,18.7384615 76.0290337,15.5076923 78.6146855,13.5692308 C79.9075113,12.4923077 80.9848662,11.8461538 81.8467501,11.4153846 C82.0622211,11.2 82.0622211,11.2 82.2776921,11.2 C82.4931631,11.4153846 82.4931631,11.8461538 82.708634,12.2769231 C82.924105,13.3538462 83.139576,14.8615385 83.139576,16.5846154 C83.139576,21.9692308 81.4158082,29.7230769 79.2610984,37.9076923 C77.3218596,45.0153846 76.4599757,51.2615385 76.4599757,56.6461538 C76.4599757,63.1076923 77.7528015,68.4923077 81.2003372,72.3692308 C84.4324019,76.4615385 89.3882343,78.4 94.3440668,78.4 L94.3440668,78.4 L94.5595378,78.4 Z"></path>
                </g>
            </g>
            <path d="M25.2428904,139.8 C28.0500389,139.8 31.5589744,139.274074 35.769697,138.222222 C57.6128205,131.823457 68.5343823,120.296914 68.5343823,103.642593 L68.5343823,101.801852 C68.5343823,99.8734568 68.3589355,97.4191358 68.008042,94.4388889 C129.940754,68.3179012 174.284926,55.2574074 201.040559,55.2574074 C212.70777,55.2574074 220.164258,57.9746914 223.410023,63.4092593 C225.883819,68.6745593 228.192185,70.934375 229.199767,71.0351852 L229.462937,71.0351852 C232.620979,70.4216049 234.2,68.9314815 234.2,66.5648148 C234.2,65.6882716 233.849106,63.9351852 233.147319,61.3055556 C228.410256,51.05 218.67296,45.9222222 203.935431,45.9222222 L202.09324,45.9222222 C201.742347,45.9222222 200.426496,45.9222222 199.987879,45.9222222 L198.540443,45.9222222 C172.135703,45.9222222 128.010839,58.8512346 66.1658508,84.7092593 C63.5341492,76.732716 61.691958,69.632716 60.6392774,63.4092593 L60.6392774,63.1462963 C74.3241259,48.4203704 81.1665501,38.4716049 81.1665501,33.3 L81.1665501,32.7740741 C81.1665501,29.0925926 78.885742,26.9012346 74.3241259,26.2 C73.446892,26.2 71.9555944,26.462963 69.8502331,26.9888889 C56.6917249,33.1246914 50.1124709,42.1530864 50.1124709,54.0740741 L50.1124709,56.5722222 C50.1124709,62.6203704 52.3932789,73.3141975 56.9548951,88.6537037 C53.3582362,90.2314815 51.1651515,91.2833333 50.375641,91.8092593 C22.3918803,103.116667 8.4,114.64321 8.4,126.388889 C8.4,127.440741 8.66317016,129.018519 9.18951049,131.122222 C12.1721057,136.907407 17.5232323,139.8 25.2428904,139.8 Z M61.4287879,47.5 L61.1656177,47.5 C62.130575,44.6074074 64.3236597,41.8901235 67.7448718,39.3481481 L67.7448718,39.3481481 L68.008042,39.3481481 C64.85,43.7308642 62.6569153,46.4481481 61.4287879,47.5 L61.4287879,47.5 Z M25.2428904,130.07037 C20.5058275,130.07037 18.137296,128.930864 18.137296,126.651852 C18.137296,119.025926 31.6905594,109.690741 58.7970862,98.6462963 L58.7970862,98.6462963 L58.7970862,103.905556 C58.7970862,109.778395 56.5162782,114.993827 51.954662,119.551852 C42.3928127,126.564198 33.4888889,130.07037 25.2428904,130.07037 Z" id="S" fill="#FFFFFF" fill-rule="nonzero" mask="url(#mask-4)"></path>
        </g>
    </g>
</svg>