<svg height="32" width="32" xmlns="http://www.w3.org/2000/svg" xmlns:xlink="http://www.w3.org/1999/xlink"><defs><circle id="a" cx="16" cy="16" r="16"/><mask id="b" fill="#fff"><use fill-rule="evenodd" xlink:href="#a"/></mask></defs><g fill="none" fill-rule="evenodd"><circle cx="16" cy="16" fill="#f3eae5" r="16"/><use fill="#6f5344" xlink:href="#a"/><g fill="#fff" fill-rule="nonzero"><g mask="url(#b)" stroke="#fff" stroke-width=".5"><path d="M25.688 27.357c1.149 0 2.366-.507 3.616-1.284 1.285-.81 2.603-1.926 3.887-3.311 1.893-2.027 3.177-3.716 3.177-3.716.338-.406.17-.946-.236-1.217 0 0-.473-.608-2.096 1.284a51.566 51.566 0 0 1-2.095 2.5c-1.217 1.284-2.434 2.298-3.55 3.007-1.08.676-2.095 1.014-2.703 1.014-.406 0-.609-.102-.778-.304-.169-.203-.338-.642-.338-1.386 0-.641.102-1.452.406-2.5.338-1.317.642-2.601.642-3.784 0-.371-.034-.743-.135-1.115s-.237-.743-.54-1.013c-.271-.304-.71-.473-1.082-.473-.947.034-1.589.608-2.299 1.25a21.966 21.966 0 0 0-1.96 2.264 2.606 2.606 0 0 0-.237-.879c-.203-.507-.71-1.047-1.42-1.081h-.1c-.947.034-1.555.574-2.299 1.182a17.015 17.015 0 0 0-1.724 1.757l.778-2.703c.135-.473-.102-.946-.575-1.08a.891.891 0 0 0-1.082.574l-2.061 7.027c-.102.406.067.845.473 1.014.372.202.811.067 1.081-.27 0 0 .237-.372.676-.947.643-.844 1.657-2.128 2.637-3.175.473-.507.98-.98 1.386-1.284a2.86 2.86 0 0 1 .507-.304c.067-.034.1-.068.135-.068.067.135.169.473.135.912.034.879-.27 2.095-.54 2.568l-.102.203c-.27.405-.135.912.236 1.182a.896.896 0 0 0 1.183-.236l.034-.034s.237-.406.642-1.014c.609-.912 1.555-2.263 2.468-3.378.473-.54.946-1.048 1.352-1.352.202-.169.371-.27.507-.338.033-.033.033-.033.067-.033.034.033.034.101.068.169.034.169.067.405.067.675 0 .845-.27 2.061-.608 3.345-.304 1.115-.44 2.095-.44 2.94 0 1.013.203 1.858.744 2.466.507.642 1.285.946 2.062.946z"/></g><path d="M3.96 21.93c.44 0 .99-.083 1.65-.248 3.427-1.004 5.14-2.812 5.14-5.424v-.29c0-.302-.027-.687-.082-1.154 9.715-4.097 16.67-6.146 20.868-6.146 1.83 0 3 .426 3.509 1.279.388.825.75 1.18.908 1.196h.041c.496-.096.743-.33.743-.701 0-.138-.055-.413-.165-.825-.743-1.61-2.27-2.414-4.582-2.414h-.846c-4.142 0-11.064 2.029-20.765 6.085-.413-1.251-.702-2.365-.867-3.341v-.042c2.147-2.31 3.22-3.87 3.22-4.681V5.14c0-.577-.358-.921-1.073-1.031-.138 0-.372.041-.702.124-2.064.962-3.096 2.378-3.096 4.248v.392c0 .949.358 2.626 1.073 5.032-.564.248-.908.413-1.032.495-4.39 1.774-6.584 3.582-6.584 5.425 0 .165.04.412.123.742.468.908 1.308 1.361 2.519 1.361zM9.636 7.45h-.041c.151-.454.495-.88 1.032-1.279h.04c-.494.688-.838 1.114-1.031 1.279zM3.96 20.403c-.743 0-1.115-.179-1.115-.536 0-1.196 2.126-2.66 6.378-4.393v.825c0 .921-.358 1.74-1.073 2.454-1.5 1.1-2.897 1.65-4.19 1.65z" mask="url(#b)"/></g></g></svg>