<svg xmlns="http://www.w3.org/2000/svg" xmlns:xlink="http://www.w3.org/1999/xlink" width="204" height="204"><defs><circle id="a" cx="102" cy="102" r="102"/><circle id="b" cx="102" cy="102" r="102"/></defs><g fill="none" fill-rule="evenodd"><use xlink:href="#a" fill="#F3EAE5"/><mask id="c" fill="#fff"><use xlink:href="#b"/></mask><use xlink:href="#b" fill="#734BD7"/><g fill="#FFF" fill-rule="nonzero" stroke="#FFF" stroke-width="1.071" mask="url(#c)"><path d="M163.76 174.4c7.326 0 15.083-3.23 23.055-8.185 8.188-5.169 16.591-12.277 24.78-21.107 12.065-12.923 20.253-23.693 20.253-23.693 2.155-2.584 1.078-6.03-1.508-7.753 0 0-3.017-3.877-13.36 8.184-3.231 4.092-7.756 9.692-13.358 15.939-7.757 8.184-15.514 14.646-22.625 19.169-6.895 4.308-13.359 6.461-17.237 6.461-2.586 0-3.879-.646-4.956-1.938-1.078-1.292-2.155-4.092-2.155-8.83 0-4.093.646-9.262 2.586-15.94 2.154-8.4 4.094-16.584 4.094-24.122 0-2.37-.216-4.739-.862-7.108-.647-2.37-1.509-4.739-3.448-6.462-1.724-1.938-4.525-3.015-6.895-3.015-6.033.215-10.127 3.877-14.652 7.97-4.094 4.092-8.619 9.26-12.497 14.43-.216-1.938-.647-3.877-1.509-5.6-1.292-3.23-4.524-6.677-9.05-6.892h-.646c-6.033.215-9.911 3.661-14.652 7.538-3.663 3.23-7.541 7.108-10.989 11.2l4.956-17.23c.862-3.016-.646-6.031-3.663-6.893-2.801-.861-6.033.862-6.895 3.662l-13.144 44.8c-.646 2.584.431 5.384 3.017 6.461 2.37 1.292 5.171.43 6.895-1.723 0 0 1.508-2.37 4.31-6.03 4.093-5.385 10.557-13.57 16.806-20.247 3.017-3.23 6.249-6.246 8.834-8.184 1.078-.862 2.37-1.508 3.232-1.939.431-.215.647-.43.862-.43.431.86 1.078 3.015.862 5.815.216 5.6-1.724 13.354-3.447 16.369l-.647 1.292c-1.724 2.585-.862 5.816 1.509 7.539 2.585 1.507 5.817.861 7.541-1.508l.216-.215s1.508-2.585 4.093-6.462c3.879-5.815 9.912-14.43 15.73-21.538 3.016-3.447 6.033-6.677 8.619-8.616 1.293-1.077 2.37-1.723 3.232-2.154.215-.215.215-.215.43-.215.216.215.216.646.432 1.077.215 1.077.43 2.585.43 4.308 0 5.384-1.723 13.138-3.878 21.323-1.94 7.107-2.801 13.354-2.801 18.738 0 6.462 1.293 11.846 4.74 15.723 3.232 4.093 8.188 6.031 13.144 6.031h.216Z"/></g><path fill="#FFF" fill-rule="nonzero" d="M25.243 139.8c2.807 0 6.316-.526 10.527-1.578 21.843-6.399 32.764-17.925 32.764-34.58v-1.84c0-1.929-.175-4.383-.526-7.363 61.933-26.121 106.277-39.182 133.033-39.182 11.667 0 19.123 2.718 22.369 8.152 2.474 5.266 4.782 7.525 5.79 7.626h.263c3.158-.613 4.737-2.104 4.737-4.47 0-.877-.35-2.63-1.053-5.26-4.737-10.255-14.474-15.383-29.212-15.383h-5.395c-26.404 0-70.53 12.93-132.374 38.787-2.632-7.976-4.474-15.076-5.527-21.3v-.263C74.324 48.42 81.167 38.472 81.167 33.3v-.526c0-3.681-2.281-5.873-6.843-6.574-.877 0-2.368.263-4.474.789-13.158 6.136-19.738 15.164-19.738 27.085v2.498c0 6.048 2.281 16.742 6.843 32.082-3.597 1.577-5.79 2.63-6.58 3.155C22.393 103.117 8.4 114.643 8.4 126.39c0 1.052.263 2.63.79 4.733 2.982 5.785 8.333 8.678 16.053 8.678Zm36.186-92.3h-.263c.965-2.893 3.158-5.61 6.579-8.152h.263c-3.158 4.383-5.351 7.1-6.58 8.152Zm-36.186 82.57c-4.737 0-7.106-1.14-7.106-3.418 0-7.626 13.554-16.961 40.66-28.006v5.26c0 5.872-2.28 11.088-6.842 15.646-9.562 7.012-18.466 10.518-26.712 10.518Z" mask="url(#c)"/></g></svg>