<svg xmlns="http://www.w3.org/2000/svg" width="211" height="53"><g fill="none" fill-rule="evenodd"><circle cx="116" cy="24" r="24" fill="#734BD7"/><g fill="#FFF" fill-rule="nonzero" stroke="#FFF"><path stroke-width=".5" d="M137.327 29.899c1.116 0 2.297-.493 3.51-1.25 1.247-.788 2.526-1.873 3.773-3.22 1.837-1.973 3.084-3.617 3.084-3.617.328-.394.164-.92-.23-1.183 0 0-.46-.592-2.034 1.249a50.142 50.142 0 0 1-2.034 2.432c-1.18 1.25-2.362 2.236-3.444 2.926-1.05.657-2.034.986-2.625.986-.393 0-.59-.098-.754-.296-.164-.197-.328-.624-.328-1.347 0-.625.098-1.414.393-2.433.328-1.282.624-2.531.624-3.681 0-.362-.033-.724-.132-1.085-.098-.362-.23-.723-.525-.986a1.468 1.468 0 0 0-1.05-.46c-.918.032-1.541.591-2.23 1.216a21.357 21.357 0 0 0-1.903 2.202 2.54 2.54 0 0 0-.23-.855c-.196-.493-.688-1.019-1.377-1.051h-.099c-.918.032-1.509.558-2.23 1.15a16.536 16.536 0 0 0-1.674 1.71l.755-2.63c.131-.46-.099-.92-.558-1.052a.864.864 0 0 0-1.05.559l-2 6.837c-.1.394.065.822.459.986.36.197.787.066 1.05-.263 0 0 .229-.362.655-.92.624-.822 1.608-2.071 2.56-3.09.459-.493.95-.954 1.344-1.25.164-.13.361-.23.492-.295.066-.033.099-.066.132-.066.065.131.164.46.13.888.034.854-.262 2.038-.524 2.498l-.098.197c-.263.394-.132.887.23 1.15a.868.868 0 0 0 1.147-.23l.033-.033s.23-.394.624-.986c.59-.887 1.509-2.202 2.394-3.287.46-.526.919-1.019 1.313-1.315.196-.164.36-.263.492-.328.032-.033.032-.033.065-.033.033.033.033.098.066.164.033.164.065.395.065.658 0 .821-.262 2.005-.59 3.254-.295 1.085-.426 2.038-.426 2.86 0 .986.196 1.808.721 2.4.492.624 1.247.92 2.001.92h.033Zm8.464-2.236c.919-.033 1.739-.558 2.887-1.577.853-.756 1.87-1.808 3.084-3.255.065.296.164.56.328.855.426.887 1.28 1.71 2.591 2.17.427.13.886.197 1.345.197 2.034 0 4.33-1.052 6.2-2.071a38.898 38.898 0 0 0 2.782-1.677l.243-.163.29-.198c.393-.263.458-.79.196-1.184-.262-.361-.787-.46-1.148-.197 0 0-.361.23-.919.592-.82.559-2.198 1.38-3.608 2.038-1.444.69-2.986 1.216-4.036 1.183-.295 0-.59-.033-.787-.098-.951-.362-1.378-.822-1.673-1.348a3.76 3.76 0 0 1-.36-1.578c0-.164.032-.329.032-.427l.016-.048.015-.045.002-.006a.939.939 0 0 0-.066-.526c.328 0 .623-.164.755-.46a.792.792 0 0 0-.361-1.118c-.755-.361-1.51-.558-2.23-.558-2.166.032-3.905 1.413-5.119 2.99-1.213 1.579-1.968 3.354-2 4.734 0 .362.065.79.294 1.15.263.395.755.625 1.181.625h.066Zm.131-1.709v-.066c-.033-.723.59-2.4 1.64-3.714 1.05-1.348 2.428-2.334 3.773-2.334h.033c.197 0 .427.033.656.099a.441.441 0 0 0-.23.197c-1.771 2.268-3.182 3.78-4.199 4.7-.787.724-1.41 1.052-1.673 1.118Zm19.18 26.33c1.448-.04 2.68-.78 3.555-1.907 1.41-1.742 2.198-4.306 2.69-7.264.459-2.959.623-6.311.623-9.5 0-2.235-.066-4.438-.164-6.377 2.953-2.564 6.627-4.536 11.023-5.39.46-.067.754-.527.656-.987-.099-.46-.525-.756-.984-.657-4.232.821-7.84 2.63-10.859 4.996-.197-2.794-.426-4.635-.426-4.668a.61.61 0 0 0-.066-.23c.328 0 .623-.164.754-.46a.817.817 0 0 0-.36-1.118c-.755-.361-1.51-.558-2.231-.558-2.165.032-3.904 1.413-5.118 2.99-1.214 1.579-1.968 3.32-2.001 4.701 0 .395.066.822.295 1.184.263.394.788.657 1.247.624.918-.033 1.739-.558 2.887-1.577.885-.756 1.902-1.841 3.15-3.32.065.525.098 1.183.163 1.873.033.592.099 1.216.131 1.907a28.927 28.927 0 0 0-4.002 4.536c-3.609 5.062-5.446 10.749-5.446 14.956 0 1.71.296 3.222.984 4.372.657 1.118 1.838 1.874 3.215 1.874h.285Zm-1.235-26.33v-.199c.025-.742.638-2.326 1.64-3.581 1.017-1.348 2.428-2.334 3.773-2.334h.033c.197 0 .426.033.656.099a.441.441 0 0 0-.23.197c-1.771 2.268-3.182 3.78-4.199 4.7-.787.724-1.41 1.052-1.673 1.118Zm1.017 24.654c-.853 0-1.378-.33-1.837-1.085-.46-.756-.755-1.973-.755-3.485 0-3.747 1.706-9.204 5.15-14.003a31.795 31.795 0 0 1 2.757-3.287c.065 1.545.098 3.189.098 4.865 0 4.175-.295 8.58-1.181 11.867-.427 1.643-1.017 2.99-1.739 3.846-.721.887-1.476 1.282-2.493 1.282Zm32.314-33.463a.744.744 0 0 0 .525-.198l.393-.361c.361-.296.394-.822.099-1.184a.83.83 0 0 0-1.181-.065l-.394.328a.868.868 0 0 0-.098 1.184.873.873 0 0 0 .656.296Zm3.313 8.908c2.034 0 4.33-1.052 6.2-2.071a37.833 37.833 0 0 0 2.826-1.717l.236-.157c.156-.105.244-.164.252-.164a.873.873 0 0 0 .197-1.184.869.869 0 0 0-1.181-.197s-.328.23-.886.592c-.853.559-2.198 1.38-3.642 2.038-1.41.69-2.952 1.216-4.002 1.183-.328 0-.59-.033-.787-.098-.853-.33-1.28-.79-1.542-1.414-.295-.592-.361-1.315-.361-1.874 0-.295 0-.525.033-.69 0-.164.033-.263.033-.263.098-.427-.197-.887-.656-.986a.88.88 0 0 0-.985.658c0 .065-.098.558-.098 1.281 0 .724.066 1.677.492 2.597.426.92 1.247 1.808 2.526 2.268.427.132.886.198 1.345.198Z"/><path stroke-width=".826" d="M179.86 45.611c2.608 0 5.659-2.662 7.922-6.706 2.336-4.06 3.702-10.017 3.785-14.465l.005-.475c5.32-2.992 4.322-2.417 4.418-2.465 1.762-.888 1.727-1.631 1.024-1.328-1.024.44.02-.053-5.492 2.758-.197-2.91-1.328-4.388-2.805-4.388-.246 0-.492.049-.689.049-.442-.592-1.87-1.48-3.887-.542-2.608 1.232-2.608 4.339-.787 4.339 1.033 0 2.116-.937 3.1-1.776l.59-.44c.542-.398 1.083-.743 1.624-.743 1.28 0 1.82 1.43 1.92 3.994-2.067 1.183-4.085 2.564-5.758 4.29-5.708 5.818-8.07 10.847-8.07 14.496 0 2.515 1.771 3.402 3.1 3.402Zm6.987-7.396c-2.51 4.438-5.56 6.46-7.38 6.46-1.133 0-1.723-.888-1.723-2.318 0-2.763 1.902-7.765 7.623-13.649l.3-.305a23.071 23.071 0 0 1 4.97-3.895v.197c0 3.254-1.378 9.319-3.79 13.51Zm-1.033-18.391-.321.265c-.895.75-1.655 1.46-2.14 1.46-.737 0-.836-1.43.985-2.613 1.18-.789 2.263-.542 3.002-.148-.59.247-1.083.641-1.526 1.036Z"/></g><path fill="#FFF" fill-rule="nonzero" d="M3.09 36c.515 0 1.16-.096 1.932-.289 4.008-1.171 6.012-3.282 6.012-6.33v-.338c0-.353-.033-.802-.097-1.348 11.364-4.782 19.5-7.173 24.41-7.173 2.14 0 3.508.497 4.104 1.492.454.964.877 1.378 1.062 1.397h.048c.58-.113.87-.386.87-.819 0-.16-.065-.481-.194-.963-.869-1.877-2.655-2.816-5.36-2.816h-.989c-4.845 0-12.941 2.367-24.289 7.101-.483-1.46-.82-2.76-1.014-3.9v-.048c2.511-2.696 3.766-4.517 3.766-5.464v-.096c0-.674-.418-1.075-1.255-1.204-.161 0-.435.048-.82.145-2.415 1.123-3.622 2.776-3.622 4.958v.458c0 1.107.418 3.065 1.255 5.873-.66.289-1.062.482-1.207.578C2.567 29.284 0 31.394 0 33.544c0 .193.048.482.145.867C.692 35.471 1.674 36 3.09 36Zm6.64-16.898h-.048c.177-.53.579-1.027 1.207-1.493h.048c-.58.803-.982 1.3-1.207 1.493ZM3.09 34.219c-.869 0-1.303-.209-1.303-.626 0-1.396 2.486-3.105 7.46-5.127v.962c0 1.076-.418 2.03-1.255 2.865-1.755 1.284-3.389 1.926-4.902 1.926Zm40.851-14.973c1.16-.417 1.739-1.05 1.739-1.901-.129-.963-.596-1.445-1.4-1.445h-.194c-.225 0-.402.032-.53.097-.918.481-1.377 1.035-1.377 1.66v.337c0 .642.41 1.06 1.231 1.252h.531Zm-.99 9.942c2.415 0 5.682-1.926 9.803-5.777.966-.867 1.448-1.477 1.448-1.83v-.048c-.128-.546-.37-.818-.724-.818h-.434c-.054 0-.326.242-.816.727l-.223.223c-.198.198-.423.427-.676.686-.29.29-.901.827-1.835 1.613-2.929 2.295-5.11 3.442-6.542 3.442-.805 0-1.208-.521-1.208-1.564 0-.867.338-2.287 1.014-4.26-.145-.595-.434-.891-.869-.891-.257 0-.609.067-.906.562-.756 1.974-1.001 3.37-1.001 4.589l.072 1.035c.451 1.54 1.417 2.31 2.898 2.31Zm11.179 2.046c2.414 0 6.1-2.56 11.058-7.679 1.062-.995 1.593-1.62 1.593-1.878v-.144c0-.45-.29-.73-.869-.842-.048 0-.193.024-.434.072-5.586 5.809-9.32 8.714-11.203 8.714h-.048c-.773 0-1.16-.755-1.16-2.263 0-1.172.274-2.84.822-5.007 1.786-1.974 3.203-3.691 4.249-5.151 4.909-6.949 7.484-11.78 7.726-14.491C65.735 1.522 65.317 1 64.608 1h-.193c-1.883 0-4.482 3.137-7.798 9.412-3.541 7.462-5.312 13.047-5.312 16.754.032.77.105 1.412.217 1.925.5 1.429 1.369 2.143 2.608 2.143Zm1.231-13.528c1.642-4.397 3.67-8.41 6.085-12.036.997-1.332 1.859-2.239 2.583-2.72-.612 2.423-2.511 6.01-5.698 10.76-1.191 1.749-2.181 3.08-2.97 3.996Zm12 16.56c1.497 0 4.2-2.8 8.112-8.4 1.432 1.22 2.978 1.83 4.636 1.83 1.657 0 3.404-.546 5.239-1.638 2.736-2.038 4.144-3.41 4.225-4.116 0-.45-.29-.738-.87-.866h-.144c-.097 0-.226.048-.386.144-2.882 3.13-5.537 4.694-7.968 4.694-1.32 0-2.543-.481-3.67-1.444v-.048c.998-1.268 1.497-2.287 1.497-3.057v-.193c0-.273-.064-.594-.193-.963-.74-1.316-1.682-1.974-2.825-1.974h-.193c-1.127.225-1.69 1.108-1.69 2.648v.145c0 1.187.386 2.334 1.159 3.442-.692 1.01-1.706 2.375-3.042 4.092-1.481 1.926-2.712 3.201-3.694 3.827l-.048-.24v-.241c0-.514.032-1.027.096-1.54.805-4.67 1.207-7.463 1.207-8.378 0-.417-.048-.786-.145-1.107-.273-.738-.74-1.107-1.4-1.107l-.434.096c-1.288.642-2.029 1.3-2.222 1.974v.144c0 .466.29.755.87.867h.096c.193 0 .66-.353 1.4-1.06h.049v.049c0 .546-.032 1.051-.097 1.516-.805 4.654-1.207 7.47-1.207 8.45v.288c.129 1.445.628 2.167 1.497 2.167h.145Zm8.112-11.41c-.37-.513-.555-1.138-.555-1.877v-.096c0-.24.048-.513.145-.818.595 0 .99.385 1.183 1.155v.145c0 .272-.258.77-.773 1.492Zm15.404-3.61c1.158-.417 1.738-1.05 1.738-1.901-.129-.963-.596-1.445-1.4-1.445h-.194c-.225 0-.402.032-.53.097-.918.481-1.377 1.035-1.377 1.66v.337c0 .642.41 1.06 1.231 1.252h.532Zm-.99 9.942c2.414 0 5.682-1.926 9.802-5.777.966-.867 1.449-1.477 1.449-1.83v-.048c-.13-.546-.37-.818-.725-.818h-.434c-.054 0-.326.242-.816.727l-.223.223c-.197.198-.423.427-.675.686-.29.29-.902.827-1.835 1.613-2.93 2.295-5.11 3.442-6.543 3.442-.805 0-1.207-.521-1.207-1.564 0-.867.338-2.287 1.014-4.26-.145-.595-.435-.891-.87-.891-.257 0-.515.12-.772.36-.757 1.974-1.135 3.571-1.135 4.79l.072 1.036c.451 1.54 1.417 2.31 2.898 2.31Zm15.91.409c1.626 0 3.952-1.115 6.978-3.346 2.752-2.31 4.16-3.699 4.225-4.164v-.313c0-.37-.29-.626-.87-.77h-.096c-.225 0-.941.65-2.149 1.95-3.734 3.257-6.51 4.886-8.33 4.886-.772 0-1.158-.514-1.158-1.54v-.049c0-.85.225-1.982.676-3.394a4.639 4.639 0 0 0 .531-2.19v-.338c-.16-1.139-.708-1.709-1.642-1.709-1.432 0-3.283 1.188-5.553 3.563-1.931 2.359-2.953 4.245-3.066 5.657v.265c0 .577.37.946 1.11 1.107 1.015 0 3.075-1.444 6.182-4.333h.048a10.87 10.87 0 0 0-.097 1.324v.144c0 .402.049.787.145 1.156.5 1.396 1.36 2.094 2.583 2.094h.483Zm-8.257-2.768c.274-.883.934-1.95 1.98-3.202 1.835-1.958 3.267-3.025 4.298-3.201v.192c0 .145-.033.401-.097.77-3.074 2.953-5.135 4.767-6.18 5.44Z"/></g></svg>